Coordinates
version=1
nRows=21
nColumns=12
inDegrees=yes

Units are S.I. units (second, meters, Newtons, ...)
Angles are in degrees

endheader
time	SC_y	SC_z	SC_x	AC_y	AC_z	AC_x	GH_y	GH_z	GH_yy	EL_x	PS_y
       0.0              -13.33          19.74          28.49           46.0         -9.009         -13.12          107.0          2.881         -102.4          92.28          119.7
   0.03007              -13.33          19.74          28.49           46.0         -9.009         -13.12          107.0          2.882         -102.4          92.27          119.6
   0.06014              -13.33          19.74          28.49           46.0         -9.009         -13.12          107.0          2.882         -102.4          92.27          119.6
   0.09021              -13.33          19.74          28.49           46.0          -9.01         -13.12          107.0          2.883         -102.4          92.26          119.6
    0.1203              -13.33          19.74           28.5           46.0          -9.01         -13.12          107.0          2.884         -102.4          92.25          119.6
    0.1504              -13.33          19.74           28.5           46.0         -9.011         -13.13          107.0          2.884         -102.4          92.24          119.6
    0.1804              -13.33          19.74           28.5           46.0         -9.011         -13.13          107.0          2.885         -102.5          92.24          119.5
    0.2105              -13.33          19.74           28.5           46.0         -9.012         -13.13          107.0          2.886         -102.5          92.23          119.5
    0.2406              -13.33          19.73          28.51           46.0         -9.013         -13.13          107.0          2.887         -102.5          92.22          119.5
    0.2706              -13.33          19.73          28.51           46.0         -9.013         -13.13          106.9          2.888         -102.5          92.21          119.5
    0.3007              -13.33          19.73          28.51          45.99         -9.014         -13.13          106.9          2.889         -102.5           92.2          119.4
    0.3308              -13.33          19.73          28.52          45.99         -9.015         -13.13          106.9           2.89         -102.5          92.19          119.4
    0.3609              -13.33          19.73          28.52          45.99         -9.016         -13.13          106.9          2.891         -102.5          92.17          119.4
    0.3909              -13.33          19.73          28.52          45.99         -9.017         -13.13          106.9          2.893         -102.5          92.16          119.3
     0.421              -13.33          19.73          28.53          45.99         -9.018         -13.13          106.9          2.894         -102.6          92.15          119.3
    0.4511              -13.33          19.72          28.53          45.99         -9.019         -13.14          106.8          2.896         -102.6          92.13          119.3
    0.4811              -13.33          19.72          28.54          45.98          -9.02         -13.14          106.8          2.897         -102.6          92.11          119.2
    0.5112              -13.33          19.72          28.54          45.98         -9.021         -13.14          106.8          2.899         -102.6          92.09          119.2
    0.5413              -13.33          19.72          28.55          45.98         -9.023         -13.14          106.7          2.901         -102.6          92.07          119.1
    0.5714              -13.32          19.71          28.55          45.98         -9.024         -13.14          106.7          2.903         -102.7          92.05          119.0
    0.6014              -13.32          19.71          28.56          45.97         -9.026         -13.15          106.7          2.906         -102.7          92.03          119.0
